HIERARCHY
ROOT Hips
{
  OFFSET 203.405 97.8195 63.8683
  CHANNELS 6 Xposition Yposition Zposition Zrotation Xrotation Yrotation
  JOINT RightUpLeg
  {
    OFFSET -8.9458 -8.66707 0.101652
    CHANNELS 3 Zrotation Xrotation Yrotation
    JOINT RightLeg
    {
      OFFSET 0 -44.4227 1.3727
      CHANNELS 3 Zrotation Xrotation Yrotation
      JOINT RightFoot
      {
        OFFSET 0.253549 -42.0924 -1.46059
        CHANNELS 3 Zrotation Xrotation Yrotation
        JOINT RightToes
        {
          OFFSET 0.04 -4.41509 8.4991
          CHANNELS 3 Zrotation Xrotation Yrotation
          End Site
          {
            OFFSET -0.08 -0.137448 9.77979
          }
        }
      }
    }
  }
  JOINT Spine
  {
    OFFSET 0 11.8905 0
    CHANNELS 3 Zrotation Xrotation Yrotation
    JOINT Spine1
    {
      OFFSET 0 25.6574 0.127663
      CHANNELS 3 Zrotation Xrotation Yrotation
      JOINT HEad
      {
        OFFSET 0 8.73416 0.011341
        CHANNELS 3 Zrotation Xrotation Yrotation
        End Site
        {
          OFFSET -0.29 12.7742 2.51395
        }
      }
      JOINT LeftShoulder1
      {
        OFFSET 8.99 -0.362252 -0.22
        CHANNELS 3 Zrotation Xrotation Yrotation
        JOINT LeftArm
        {
          OFFSET 10.2827 -0.00338 0.322123
          CHANNELS 3 Zrotation Xrotation Yrotation
          JOINT LeftForeArm
          {
            OFFSET 32.7669 0.099144 -1.42434
            CHANNELS 3 Zrotation Xrotation Yrotation
            JOINT LeftHand
            {
              OFFSET 27.5643 0.085362 1.02216
              CHANNELS 3 Zrotation Xrotation Yrotation
              End Site
              {
                OFFSET 16.7443 -0.6 1.50291
              }
            }
          }
        }
      }
      JOINT RightShoulder
      {
        OFFSET -8.99 -0.362252 -0.22
        CHANNELS 3 Zrotation Xrotation Yrotation
        JOINT RightArm
        {
          OFFSET -10.2827 -0.00338 0.322123
          CHANNELS 3 Zrotation Xrotation Yrotation
          JOINT RightForeArm
          {
            OFFSET -32.8971 0.099144 -1.42434
            CHANNELS 3 Zrotation Xrotation Yrotation
            JOINT RightHand
            {
              OFFSET -27.4921 0.085362 1.02216
              CHANNELS 3 Zrotation Xrotation Yrotation
              End Site
              {
                OFFSET -16.6312 -0.6 1.50291
              }
            }
          }
        }
      }
    }
  }
  JOINT LeftUpLeg
  {
    OFFSET 8.9458 -8.66707 0.101652
    CHANNELS 3 Zrotation Xrotation Yrotation
    JOINT LeftLeg
    {
      OFFSET 0 -44.4227 1.3727
      CHANNELS 3 Zrotation Xrotation Yrotation
      JOINT LeftFoot
      {
        OFFSET -0.253549 -42.0924 -1.46059
        CHANNELS 3 Zrotation Xrotation Yrotation
        JOINT LeftToes
        {
          OFFSET -0.04 -4.41509 8.4991
          CHANNELS 3 Zrotation Xrotation Yrotation
          End Site
          {
            OFFSET 0.08 -0.047448 9.77979
          }
        }
      }
    }
  }
}
MOTION
Frames:	20
Frame Time:	0.0166667
0	103.951	0	1.95315	3.83266	161.64	1.14568	0.937422	-1.58385	0.973088	11.1568	-19.5989	3.7471	-7.42339	-0.390153	0.0462048	0.000533964	0.662642	-0.12088	-2.26864	-1.4959	-0.301384	-4.53056	-3.00034	1.02098	12.7776	19.6155	0.00E+00	1.59E-15	0.00E+00	-0.379964	-7.82323	-7.83918	1.91949	10.1559	-5.90736	-3.23211	7.5527	7.26804	0.00E+00	1.59E-15	0.00E+00	0.667188	-9.046	-5.24618	-0.766912	15.6696	-1.9422	3.59702	11.0475	0.1859	-1.31504	3.33394	9.99882	1.78226	10.6695	2.05513	-6.37701	-19.5517	-1.51404	1.37E-14	3.50E-14	6.36E-15
-0.0047	103.955	-0.016	1.96765	3.81564	161.627	1.14204	0.93466	-1.60765	0.995354	11.1482	-19.5675	3.75244	-7.43289	-0.434795	0.0462048	0.000533964	0.662642	-0.118441	-2.27084	-1.49472	-0.296514	-4.53503	-2.99791	1.01474	12.7875	19.6432	7.95E-16	3.18E-15	3.18E-15	-0.362829	-7.84248	-7.83113	1.89819	10.1297	-5.86981	-3.21782	7.55073	7.29009	7.95E-16	3.18E-15	3.18E-15	0.664429	-9.00376	-5.23419	-0.755577	15.6334	-1.95956	3.62242	11.052	0.179562	-1.29729	3.34167	10.0353	1.77443	10.653	2.06545	-6.3631	-19.5526	-1.50912	1.45E-14	3.02E-14	4.77E-15
-0.0047	103.959	-0.03	1.96857	3.7938	161.615	1.14823	0.927022	-1.6371	0.99266	11.1329	-19.5294	3.75732	-7.42897	-0.286584	0.0462048	0.000533964	0.662642	-0.118188	-2.27187	-1.49437	-0.296646	-4.54326	-2.99693	1.00914	12.8074	19.6725	7.95E-16	1.59E-15	0.00E+00	-0.356414	-7.86437	-7.82041	1.89381	10.1132	-5.83796	-3.25934	7.54015	7.30976	7.95E-16	1.59E-15	0.00E+00	0.663549	-8.97977	-5.21547	-0.750667	15.6131	-1.97293	3.62933	11.0587	0.160495	-1.28324	3.34585	10.0649	1.75366	10.6323	2.07457	-6.34371	-19.5565	-1.50404	1.45E-14	3.02E-14	4.77E-15
0.0037	103.962	-0.04	1.96767	3.76799	161.607	1.15474	0.908374	-1.65529	0.988491	11.1247	-19.5116	3.7586	-7.43873	-0.260788	0.0462048	0.000533964	0.662642	-0.118771	-2.27248	-1.49408	-0.29884	-4.55177	-2.99611	1.00248	12.8404	19.6978	-3.53E-31	3.18E-15	6.36E-15	-0.333149	-7.86404	-7.8035	1.88425	10.0931	-5.83223	-3.30626	7.53705	7.34157	-3.53E-31	3.18E-15	6.36E-15	0.644586	-8.96898	-5.20856	-0.721631	15.6108	-1.97838	3.63762	11.0671	0.163636	-1.26171	3.3386	10.0826	1.72998	10.616	2.07235	-6.32424	-19.5603	-1.49093	1.63E-14	3.66E-14	5.57E-15
0.0097	103.965	-0.05	1.96728	3.75343	161.604	1.15399	0.898929	-1.66481	0.996243	11.1197	-19.5094	3.76165	-7.45727	-0.408906	0.0462048	0.000533964	0.662642	-0.119903	-2.27274	-1.49387	-0.30158	-4.5543	-2.99543	0.998028	12.8639	19.7199	-1.59E-15	-3.18E-15	3.18E-15	-0.302216	-7.83887	-7.78832	1.87591	10.047	-5.84835	-3.30208	7.53789	7.35541	-1.59E-15	-3.18E-15	3.18E-15	0.616077	-8.96423	-5.22347	-0.697352	15.594	-1.9738	3.64261	11.0863	0.170353	-1.25375	3.34279	10.1286	1.72616	10.5941	2.02895	-6.30895	-19.5672	-1.47685	1.41E-14	3.18E-14	5.57E-15
0.0125	103.968	-0.061	1.97228	3.74716	161.603	1.14425	0.901071	-1.66768	1.01534	11.1111	-19.5083	3.76578	-7.4738	-0.608389	0.0462048	0.000533964	0.662642	-0.121297	-2.27272	-1.49373	-0.303867	-4.55445	-2.99491	0.996298	12.8821	19.7447	7.95E-16	-3.18E-15	-3.18E-15	-0.276273	-7.79415	-7.77938	1.87162	9.99944	-5.86661	-3.26242	7.54162	7.34623	7.95E-16	-3.18E-15	-3.18E-15	0.614905	-8.94894	-5.20068	-0.687906	15.5913	-1.9892	3.64202	11.0743	0.166975	-1.24969	3.35611	10.1627	1.72905	10.5731	1.98981	-6.29874	-19.5734	-1.46483	1.63E-14	3.34E-14	4.77E-15
0.0087	103.97	-0.075	1.97602	3.73558	161.603	1.13569	0.898676	-1.66195	1.03148	11.1028	-19.508	3.76875	-7.47743	-0.566239	0.0462048	0.000533964	0.662642	-0.122666	-2.27246	-1.49367	-0.30563	-4.55311	-2.99456	0.995479	12.8969	19.767	0.00E+00	0.00E+00	-6.36E-15	-0.254817	-7.75003	-7.78335	1.87523	9.95423	-5.86815	-3.22345	7.54989	7.34215	0.00E+00	0.00E+00	-6.36E-15	0.599194	-8.92498	-5.18442	-0.672129	15.5849	-2.0121	3.64791	11.0728	0.14606	-1.25423	3.35859	10.1469	1.73558	10.5622	1.99316	-6.29039	-19.5761	-1.4536	1.45E-14	3.34E-14	5.57E-15
-0.0024	103.972	-0.091	1.97913	3.71864	161.603	1.14618	0.888437	-1.64443	1.02587	11.0984	-19.51	3.77339	-7.47735	-0.458316	0.0462048	0.000533964	0.662642	-0.123723	-2.27204	-1.49371	-0.309067	-4.5512	-2.99439	0.988917	12.9221	19.7789	1.59E-15	3.18E-15	3.18E-15	-0.248802	-7.7448	-7.80486	1.86166	9.94728	-5.85176	-3.16888	7.55322	7.35259	1.59E-15	3.18E-15	3.18E-15	0.563433	-8.87658	-5.18002	-0.64562	15.5589	-2.0329	3.62643	11.0896	0.133965	-1.26662	3.35022	10.1072	1.74761	10.559	2.0228	-6.28087	-19.5773	-1.44632	1.53E-14	3.50E-14	6.36E-15
-0.0186	103.974	-0.106	1.98361	3.70052	161.603	1.16515	0.878109	-1.62691	1.01557	11.0938	-19.5161	3.7775	-7.47565	-0.307531	0.0462048	0.000533964	0.662642	-0.124734	-2.27151	-1.49384	-0.313058	-4.54963	-2.99441	0.994709	12.9646	19.7739	1.59E-15	1.59E-15	-3.18E-15	-0.242466	-7.76023	-7.82531	1.85521	9.95328	-5.84072	-3.17541	7.56607	7.36684	1.59E-15	1.59E-15	-3.18E-15	0.542628	-8.83884	-5.19282	-0.632543	15.5234	-2.05064	3.57352	11.1259	0.124442	-1.27822	3.33974	10.0735	1.7573	10.5571	2.04901	-6.26956	-19.578	-1.44325	1.37E-14	3.02E-14	6.36E-15
-0.0358	103.975	-0.122	1.98881	3.69143	161.603	1.17179	0.877448	-1.606	1.01989	11.0905	-19.5317	3.78247	-7.47374	-0.430186	0.0462048	0.000533964	0.662642	-0.125987	-2.27094	-1.49407	-0.315637	-4.54789	-2.99461	1.00826	13.0075	19.7698	-7.95E-16	1.59E-15	-3.18E-15	-0.219867	-7.76093	-7.83798	1.8391	9.94991	-5.83569	-3.21325	7.58495	7.38329	-7.95E-16	1.59E-15	-3.18E-15	0.536248	-8.8144	-5.18863	-0.626932	15.5194	-2.07032	3.5374	11.1323	0.0916122	-1.28951	3.33919	10.0712	1.76548	10.5549	2.04241	-6.25554	-19.5783	-1.44211	1.59E-14	3.18E-14	5.57E-15
-0.0484	103.976	-0.139	1.99418	3.68728	161.6	1.15362	0.881086	-1.58957	1.04605	11.0875	-19.5471	3.78462	-7.47207	-0.245397	0.0462048	0.000533964	0.662642	-0.127222	-2.27038	-1.4944	-0.31597	-4.54133	-2.995	1.01978	13.0386	19.7608	1.59E-15	0.00E+00	0.00E+00	-0.199403	-7.74748	-7.86334	1.83288	9.91748	-5.83552	-3.24153	7.60258	7.38793	1.59E-15	0.00E+00	0.00E+00	0.511581	-8.82172	-5.20194	-0.624859	15.5312	-2.08268	3.52759	11.1494	0.0547513	-1.28833	3.34848	10.0837	1.75473	10.5496	2.02605	-6.23865	-19.5782	-1.44742	1.35E-14	3.18E-14	6.36E-15
-0.0538	103.977	-0.159	2.00084	3.67769	161.598	1.13657	0.885741	-1.60835	1.06827	11.0862	-19.527	3.78609	-7.47033	-0.0621671	0.0462048	0.000533964	0.662642	-0.128181	-2.26991	-1.49484	-0.315263	-4.53521	-2.99558	1.02138	13.0589	19.7543	-7.95E-16	3.18E-15	0.00E+00	-0.171857	-7.74149	-7.88105	1.81834	9.90864	-5.84244	-3.20882	7.5971	7.38411	-7.95E-16	3.18E-15	0.00E+00	0.482648	-8.83254	-5.2073	-0.62108	15.5392	-2.09189	3.52879	11.1728	0.0101567	-1.27503	3.35926	10.1047	1.73438	10.5401	2.00787	-6.22492	-19.5778	-1.454	1.31E-14	3.34E-14	5.57E-15
-0.0587	103.978	-0.179	2.01114	3.66817	161.595	1.12962	0.888148	-1.65079	1.07985	11.0801	-19.4892	3.78938	-7.47017	-0.128388	0.0462048	0.000533964	0.662642	-0.128605	-2.26958	-1.49539	-0.314024	-4.53269	-2.99638	1.00913	13.0715	19.7489	0.00E+00	0.00E+00	3.18E-15	-0.153871	-7.73693	-7.88503	1.80888	9.92561	-5.85406	-3.15018	7.59304	7.37839	0.00E+00	0.00E+00	3.18E-15	0.420459	-8.81993	-5.21905	-0.596252	15.5198	-2.09971	3.51917	11.1881	-0.000127802	-1.26049	3.37698	10.1247	1.71647	10.519	2.01143	-6.21592	-19.5772	-1.46554	1.63E-14	3.02E-14	5.57E-15
-0.0636	103.979	-0.202	2.02366	3.65504	161.592	1.13686	0.886062	-1.66636	1.08311	11.0813	-19.4708	3.79442	-7.47386	-0.176582	0.0462048	0.000533964	0.662642	-0.128234	-2.26945	-1.49607	-0.31247	-4.53134	-2.9974	0.987167	13.087	19.7473	0.00E+00	-1.59E-15	0.00E+00	-0.138759	-7.70572	-7.88495	1.80267	9.91363	-5.85584	-3.10324	7.60985	7.37534	0.00E+00	-1.59E-15	0.00E+00	0.36821	-8.76767	-5.21569	-0.581732	15.4737	-2.11465	3.49228	11.182	-0.0134899	-1.23539	3.3935	10.1745	1.68956	10.4991	2.01068	-6.20902	-19.5756	-1.48288	1.33E-14	3.18E-14	4.77E-15
-0.0799	103.981	-0.226	2.03166	3.6341	161.591	1.1439	0.873907	-1.66411	1.08878	11.0842	-19.4635	3.79953	-7.48036	-0.195143	0.0462048	0.000533964	0.662642	-0.125758	-2.26959	-1.49687	-0.31094	-4.53106	-2.99863	0.968451	13.0991	19.7423	-3.53E-31	3.18E-15	6.36E-15	-0.124256	-7.70242	-7.88523	1.79407	9.90596	-5.86587	-3.09622	7.6323	7.37722	-3.53E-31	3.18E-15	6.36E-15	0.298763	-8.7192	-5.21714	-0.551919	15.4313	-2.13742	3.44652	11.1801	-0.0373931	-1.23208	3.40105	10.2466	1.68588	10.4682	2.00607	-6.20645	-19.5647	-1.49732	1.31E-14	3.50E-14	7.16E-15
-0.0975	103.982	-0.25	2.03705	3.6059	161.593	1.15139	0.850812	-1.65083	1.09674	11.0928	-19.4651	3.80313	-7.48465	-0.279654	0.0462048	0.000533964	0.662642	-0.124335	-2.27005	-1.4978	-0.30887	-4.53172	-3.0001	0.967491	13.1055	19.7355	-1.77E-31	-1.59E-15	-6.36E-15	-0.100762	-7.69847	-7.88858	1.78767	9.89772	-5.86137	-3.12131	7.64548	7.3916	-1.77E-31	-1.59E-15	-6.36E-15	0.251186	-8.69432	-5.23002	-0.540837	15.3952	-2.15536	3.35806	11.1576	-0.0651834	-1.23665	3.39315	10.2938	1.69752	10.4471	1.9844	-6.20164	-19.5528	-1.48818	1.25E-14	3.34E-14	6.36E-15
-0.113	103.983	-0.277	2.04332	3.57163	161.6	1.15721	0.8176	-1.63099	1.10943	11.1081	-19.4803	3.8035	-7.47969	-0.116681	0.0462048	0.000533964	0.662642	-0.123439	-2.2709	-1.49887	-0.306757	-4.53322	-3.00178	0.990398	13.1108	19.7244	-1.59E-15	-1.59E-15	-3.18E-15	-0.0701	-7.69401	-7.89881	1.77951	9.89416	-5.84481	-3.14519	7.64083	7.41197	-1.59E-15	-1.59E-15	-3.18E-15	0.21777	-8.69877	-5.23822	-0.534297	15.3892	-2.16926	3.27348	11.1287	-0.124508	-1.23804	3.38019	10.3112	1.70913	10.4266	1.95634	-6.19301	-19.536	-1.46786	1.63E-14	3.34E-14	4.77E-15
-0.1178	103.983	-0.306	2.04734	3.53106	161.612	1.16449	0.779539	-1.63076	1.12068	11.1233	-19.4803	3.81003	-7.4975	-0.521338	0.0462048	0.000533964	0.662642	-0.122839	-2.2722	-1.50008	-0.30479	-4.53543	-3.00513	1.01489	13.1229	19.705	7.95E-16	-1.59E-15	6.36E-15	-0.0382548	-7.69041	-7.90334	1.77313	9.86823	-5.84034	-3.1654	7.64862	7.42785	7.95E-16	-1.59E-15	6.36E-15	0.168001	-8.70139	-5.25545	-0.516667	15.3812	-2.18324	3.24058	11.137	-0.184975	-1.22619	3.36355	10.3442	1.70895	10.4085	1.9043	-6.18823	-19.5194	-1.45864	1.45E-14	3.18E-14	4.77E-15
-0.1194	103.984	-0.336	2.04645	3.48832	161.629	1.1633	0.739263	-1.64647	1.13272	11.1362	-19.4721	3.81511	-7.49325	-0.518555	0.0462048	0.000533964	0.662642	-0.122306	-2.27402	-1.50143	-0.303371	-4.54045	-3.01149	1.02814	13.1439	19.6812	-7.95E-16	-1.59E-15	3.18E-15	-0.0169163	-7.68874	-7.90477	1.76964	9.81929	-5.83674	-3.14826	7.66916	7.42068	-7.95E-16	-1.59E-15	3.18E-15	0.123721	-8.67047	-5.26453	-0.503486	15.3722	-2.20788	3.24231	11.147	-0.225238	-1.21889	3.34391	10.3954	1.71398	10.3881	1.85028	-6.18748	-19.4996	-1.46368	1.57E-14	3.18E-14	5.57E-15
-0.1224	103.986	-0.366	2.04457	3.44879	161.647	1.14438	0.709171	-1.66666	1.15755	11.136	-19.4653	3.81813	-7.47396	-0.335043	0.0462048	0.000533964	0.662642	-0.121648	-2.2764	-1.5039	-0.302455	-4.54606	-3.01639	1.0492	13.1687	19.6494	-8.83E-32	-1.59E-15	-3.18E-15	-0.008063	-7.69113	-7.92038	1.78188	9.78011	-5.82408	-3.13317	7.66991	7.42762	-8.83E-32	-1.59E-15	-3.18E-15	0.0763347	-8.63536	-5.28327	-0.478193	15.3482	-2.21821	3.24319	11.1731	-0.25592	-1.21739	3.32608	10.4376	1.71772	10.3684	1.82395	-6.18722	-19.4784	-1.47462	1.39E-14	3.02E-14	4.77E-15
